<svg width="80" height="80" viewBox="0 0 80 80" fill="none" xmlns="http://www.w3.org/2000/svg">
<rect width="80" height="80" fill="white"/>
<rect x="2" y="6" width="72" height="72" fill="white" stroke="black" stroke-width="4"/>
<path d="M55.6786 57H21.3214C20.971 57 20.6349 56.8563 20.387 56.6006C20.1392 56.3449 20 55.998 20 55.6364V32.4545C20 32.0929 20.1392 31.746 20.387 31.4903C20.6349 31.2346 20.971 31.0909 21.3214 31.0909H29.8579L32.1175 27.6136C32.2372 27.4261 32.4 27.2719 32.5913 27.1648C32.7826 27.0578 32.9966 27.0012 33.2143 27H43.7857C44.0034 27.0012 44.2174 27.0578 44.4087 27.1648C44.6 27.2719 44.7628 27.4261 44.8825 27.6136L47.1421 31.0909H55.6786C56.029 31.0909 56.3651 31.2346 56.613 31.4903C56.8608 31.746 57 32.0929 57 32.4545V55.6364C57 55.998 56.8608 56.3449 56.613 56.6006C56.3651 56.8563 56.029 57 55.6786 57ZM22.6429 54.2727H54.3571V33.8182H46.4286C46.2109 33.817 45.9969 33.7604 45.8056 33.6533C45.6142 33.5463 45.4515 33.3921 45.3318 33.2045L43.0721 29.7273H33.9279L31.6682 33.2045C31.5485 33.3921 31.3858 33.5463 31.1944 33.6533C31.0031 33.7604 30.7891 33.817 30.5714 33.8182H22.6429V54.2727Z" fill="black"/>
<path d="M38.5 51C37.0166 51 35.5666 50.5601 34.3332 49.736C33.0999 48.9119 32.1386 47.7406 31.5709 46.3701C31.0032 44.9997 30.8547 43.4917 31.1441 42.0368C31.4335 40.582 32.1478 39.2456 33.1967 38.1967C34.2456 37.1478 35.582 36.4335 37.0368 36.1441C38.4917 35.8547 39.9997 36.0032 41.3701 36.5709C42.7406 37.1386 43.9119 38.0999 44.736 39.3332C45.5601 40.5666 46 42.0166 46 43.5C46 45.4891 45.2098 47.3968 43.8033 48.8033C42.3968 50.2098 40.4891 51 38.5 51ZM38.5 38.5C37.5111 38.5 36.5444 38.7932 35.7222 39.3427C34.8999 39.8921 34.259 40.673 33.8806 41.5866C33.5022 42.5002 33.4031 43.5055 33.5961 44.4755C33.789 45.4454 34.2652 46.3363 34.9645 47.0355C35.6637 47.7348 36.5546 48.211 37.5246 48.4039C38.4945 48.5969 39.4998 48.4978 40.4134 48.1194C41.327 47.741 42.1079 47.1001 42.6573 46.2779C43.2068 45.4556 43.5 44.4889 43.5 43.5C43.5 42.1739 42.9732 40.9021 42.0355 39.9645C41.0979 39.0268 39.8261 38.5 38.5 38.5V38.5Z" fill="black"/>
</svg>
