<svg width="80" height="80" viewBox="0 0 80 80" fill="none" xmlns="http://www.w3.org/2000/svg">
<g clip-path="url(#clip0_191_2)">
<rect width="80" height="80" fill="white"/>
<rect x="2" y="6" width="72" height="72" fill="white" stroke="black" stroke-width="4"/>
<rect x="6" y="2" width="72" height="72" fill="white" stroke="black" stroke-width="4"/>
<path d="M59.6786 53H25.3214C24.971 53 24.6349 52.8563 24.387 52.6006C24.1392 52.3449 24 51.998 24 51.6364V28.4545C24 28.0929 24.1392 27.746 24.387 27.4903C24.6349 27.2346 24.971 27.0909 25.3214 27.0909H33.8579L36.1175 23.6136C36.2372 23.4261 36.4 23.2719 36.5913 23.1648C36.7826 23.0578 36.9966 23.0012 37.2143 23H47.7857C48.0034 23.0012 48.2174 23.0578 48.4087 23.1648C48.6 23.2719 48.7628 23.4261 48.8825 23.6136L51.1421 27.0909H59.6786C60.029 27.0909 60.3651 27.2346 60.613 27.4903C60.8608 27.746 61 28.0929 61 28.4545V51.6364C61 51.998 60.8608 52.3449 60.613 52.6006C60.3651 52.8563 60.029 53 59.6786 53ZM26.6429 50.2727H58.3571V29.8182H50.4286C50.2109 29.817 49.9969 29.7604 49.8056 29.6533C49.6142 29.5463 49.4515 29.3921 49.3318 29.2045L47.0721 25.7273H37.9279L35.6682 29.2045C35.5485 29.3921 35.3858 29.5463 35.1944 29.6533C35.0031 29.7604 34.7891 29.817 34.5714 29.8182H26.6429V50.2727Z" fill="black"/>
<path d="M42.5 47C41.0166 47 39.5666 46.5601 38.3332 45.736C37.0999 44.9119 36.1386 43.7406 35.5709 42.3701C35.0032 40.9997 34.8547 39.4917 35.1441 38.0368C35.4335 36.582 36.1478 35.2456 37.1967 34.1967C38.2456 33.1478 39.582 32.4335 41.0368 32.1441C42.4917 31.8547 43.9997 32.0032 45.3701 32.5709C46.7406 33.1386 47.9119 34.0999 48.736 35.3332C49.5601 36.5666 50 38.0166 50 39.5C50 41.4891 49.2098 43.3968 47.8033 44.8033C46.3968 46.2098 44.4891 47 42.5 47ZM42.5 34.5C41.5111 34.5 40.5444 34.7932 39.7222 35.3427C38.8999 35.8921 38.259 36.673 37.8806 37.5866C37.5022 38.5002 37.4031 39.5055 37.5961 40.4755C37.789 41.4454 38.2652 42.3363 38.9645 43.0355C39.6637 43.7348 40.5546 44.211 41.5246 44.4039C42.4945 44.5969 43.4998 44.4978 44.4134 44.1194C45.327 43.741 46.1079 43.1001 46.6573 42.2779C47.2068 41.4556 47.5 40.4889 47.5 39.5C47.5 38.1739 46.9732 36.9021 46.0355 35.9645C45.0979 35.0268 43.8261 34.5 42.5 34.5V34.5Z" fill="black"/>
</g>
<defs>
<clipPath id="clip0_191_2">
<rect width="80" height="80" fill="white"/>
</clipPath>
</defs>
</svg>
