<svg width="188" height="64" viewBox="0 0 188 64" fill="none" xmlns="http://www.w3.org/2000/svg">
<rect width="188" height="64" fill="white"/>
<rect x="2" y="6" width="180" height="56" fill="white" stroke="black" stroke-width="4"/>
<path d="M28.328 29.016C28.1467 28.9413 27.944 28.888 27.72 28.856C27.5067 28.8133 27.2453 28.792 26.936 28.792C26.4987 28.792 26.0667 28.872 25.64 29.032C25.224 29.192 24.8507 29.4533 24.52 29.816C24.2 30.1787 23.9387 30.6533 23.736 31.24C23.544 31.8267 23.448 32.5467 23.448 33.4C23.448 34.168 23.5333 34.84 23.704 35.416C23.8853 35.992 24.1307 36.472 24.44 36.856C24.76 37.24 25.1387 37.528 25.576 37.72C26.024 37.912 26.52 38.008 27.064 38.008C27.3413 38.008 27.5973 37.9867 27.832 37.944C28.0773 37.8907 28.3013 37.8213 28.504 37.736V36.136H29.688V38.296L29.704 38.328C29.384 38.5733 28.9787 38.7813 28.488 38.952C27.9973 39.112 27.4 39.192 26.696 39.192C26.024 39.192 25.4 39.08 24.824 38.856C24.2587 38.6213 23.768 38.2693 23.352 37.8C22.936 37.3307 22.6107 36.7333 22.376 36.008C22.152 35.272 22.04 34.4027 22.04 33.4C22.04 32.3547 22.168 31.4693 22.424 30.744C22.68 30.008 23.0267 29.4107 23.464 28.952C23.9013 28.4827 24.408 28.1413 24.984 27.928C25.5707 27.7147 26.1947 27.608 26.856 27.608C27.2187 27.608 27.5333 27.624 27.8 27.656C28.0667 27.6773 28.3013 27.7147 28.504 27.768C28.7067 27.8107 28.8827 27.8693 29.032 27.944C29.192 28.0187 29.3467 28.104 29.496 28.2H29.512V30.728H28.328V29.016ZM34.5937 27.912C34.9991 27.8373 35.4631 27.7787 35.9857 27.736C36.5191 27.6933 37.0044 27.672 37.4418 27.672C37.9324 27.672 38.3964 27.7253 38.8337 27.832C39.2817 27.9387 39.6711 28.1147 40.0017 28.36C40.3431 28.6053 40.6151 28.9253 40.8177 29.32C41.0204 29.7147 41.1217 30.1947 41.1217 30.76C41.1217 31.1973 41.0471 31.5867 40.8977 31.928C40.7591 32.2587 40.5831 32.5467 40.3698 32.792C40.1671 33.0267 39.9538 33.2187 39.7298 33.368C39.5057 33.5173 39.3137 33.624 39.1537 33.688L42.1138 39H40.5617L37.9218 34.072H35.9217V39H34.5937V27.912ZM37.4737 28.824C37.3351 28.824 37.1911 28.824 37.0417 28.824C36.8924 28.824 36.7484 28.8293 36.6097 28.84C36.4711 28.8507 36.3377 28.8613 36.2097 28.872C36.0924 28.8827 35.9964 28.8987 35.9217 28.92V33.048H37.1697C37.9057 33.048 38.5137 32.8667 38.9938 32.504C39.4737 32.1413 39.7137 31.576 39.7137 30.808C39.7137 30.232 39.5164 29.7573 39.1217 29.384C38.7271 29.0107 38.1777 28.824 37.4737 28.824ZM46.6995 27.8H53.2755V28.984H48.0275V32.648H52.8755V33.832H48.0275V37.816H53.3555V39H46.6995V27.8ZM63.8773 35.896H59.5733L58.5493 39H57.2373L60.9813 27.8H62.5493L66.3253 39H64.9333L63.8773 35.896ZM59.9893 34.744H63.5093L61.8613 29.48H61.6693L59.9893 34.744ZM69.615 27.8H77.935V30.728H76.751V28.984H74.431V37.816H76.191V39H71.343V37.816H73.103V28.984H70.799V30.728H69.615V27.8ZM82.6808 27.8H89.2568V28.984H84.0088V32.648H88.8568V33.832H84.0088V37.816H89.3368V39H82.6808V27.8ZM111.948 28.904C111.586 28.8293 111.143 28.792 110.62 28.792C110.172 28.792 109.74 28.872 109.324 29.032C108.919 29.1813 108.556 29.4373 108.236 29.8C107.927 30.1627 107.676 30.6373 107.484 31.224C107.303 31.8107 107.212 32.536 107.212 33.4C107.212 34.9787 107.5 36.1413 108.076 36.888C108.663 37.6347 109.506 38.008 110.604 38.008C111.287 38.008 111.868 37.8747 112.348 37.608V34.488H110.044V33.416H113.484V38.344C113.314 38.472 113.106 38.5893 112.86 38.696C112.626 38.8027 112.37 38.8933 112.092 38.968C111.826 39.0427 111.543 39.096 111.244 39.128C110.956 39.1707 110.674 39.192 110.396 39.192C109.682 39.192 109.042 39.08 108.476 38.856C107.911 38.6213 107.431 38.2693 107.036 37.8C106.642 37.32 106.338 36.7173 106.124 35.992C105.911 35.256 105.804 34.392 105.804 33.4C105.804 32.3653 105.938 31.48 106.204 30.744C106.471 30.008 106.823 29.4107 107.26 28.952C107.698 28.4827 108.199 28.1413 108.764 27.928C109.33 27.7147 109.911 27.608 110.508 27.608C111.148 27.608 111.676 27.6453 112.092 27.72C112.508 27.784 112.86 27.8747 113.148 27.992L113.132 28.056V30.728H111.948V28.904ZM118.55 27.912C118.955 27.8373 119.419 27.7787 119.942 27.736C120.475 27.6933 120.961 27.672 121.398 27.672C121.889 27.672 122.353 27.7253 122.79 27.832C123.238 27.9387 123.627 28.1147 123.958 28.36C124.299 28.6053 124.571 28.9253 124.774 29.32C124.977 29.7147 125.078 30.1947 125.078 30.76C125.078 31.1973 125.003 31.5867 124.854 31.928C124.715 32.2587 124.539 32.5467 124.326 32.792C124.123 33.0267 123.91 33.2187 123.686 33.368C123.462 33.5173 123.27 33.624 123.11 33.688L126.07 39H124.518L121.878 34.072H119.878V39H118.55V27.912ZM121.43 28.824C121.291 28.824 121.147 28.824 120.998 28.824C120.849 28.824 120.705 28.8293 120.566 28.84C120.427 28.8507 120.294 28.8613 120.166 28.872C120.049 28.8827 119.953 28.8987 119.878 28.92V33.048H121.126C121.862 33.048 122.47 32.8667 122.95 32.504C123.43 32.1413 123.67 31.576 123.67 30.808C123.67 30.232 123.473 29.7573 123.078 29.384C122.683 29.0107 122.134 28.824 121.43 28.824ZM129.712 33.4C129.712 31.544 130.037 30.1147 130.688 29.112C131.349 28.1093 132.362 27.608 133.728 27.608C134.474 27.608 135.104 27.7467 135.616 28.024C136.138 28.3013 136.56 28.696 136.88 29.208C137.2 29.7093 137.429 30.3173 137.568 31.032C137.706 31.736 137.776 32.5253 137.776 33.4C137.776 35.256 137.445 36.6853 136.784 37.688C136.133 38.6907 135.114 39.192 133.728 39.192C132.992 39.192 132.368 39.0533 131.856 38.776C131.344 38.4987 130.928 38.1093 130.608 37.608C130.288 37.096 130.058 36.488 129.92 35.784C129.781 35.0693 129.712 34.2747 129.712 33.4ZM131.12 33.4C131.12 34.0187 131.157 34.6053 131.232 35.16C131.317 35.7147 131.461 36.2053 131.664 36.632C131.866 37.048 132.133 37.384 132.464 37.64C132.794 37.8853 133.216 38.008 133.728 38.008C134.645 38.008 135.312 37.6347 135.728 36.888C136.154 36.1413 136.368 34.9787 136.368 33.4C136.368 32.792 136.325 32.2107 136.24 31.656C136.165 31.0907 136.026 30.6 135.824 30.184C135.621 29.7573 135.349 29.4213 135.008 29.176C134.666 28.92 134.24 28.792 133.728 28.792C132.821 28.792 132.16 29.1707 131.744 29.928C131.328 30.6747 131.12 31.832 131.12 33.4ZM148.298 27.8H149.578V35.272C149.578 35.944 149.487 36.5253 149.306 37.016C149.135 37.5067 148.89 37.912 148.57 38.232C148.25 38.5413 147.86 38.7707 147.402 38.92C146.943 39.0693 146.436 39.144 145.882 39.144C144.559 39.144 143.562 38.8453 142.89 38.248C142.228 37.6507 141.898 36.744 141.898 35.528V27.8H143.226V34.904C143.226 35.4693 143.279 35.9493 143.386 36.344C143.503 36.728 143.668 37.0427 143.882 37.288C144.106 37.5227 144.383 37.6933 144.714 37.8C145.055 37.9067 145.45 37.96 145.898 37.96C146.762 37.96 147.375 37.7253 147.738 37.256C148.111 36.776 148.298 35.992 148.298 34.904V27.8ZM154.531 27.912C154.937 27.816 155.374 27.752 155.843 27.72C156.313 27.688 156.777 27.672 157.235 27.672C157.726 27.672 158.222 27.72 158.723 27.816C159.235 27.912 159.699 28.088 160.115 28.344C160.531 28.6 160.867 28.952 161.123 29.4C161.39 29.848 161.523 30.4187 161.523 31.112C161.523 31.7947 161.401 32.3707 161.155 32.84C160.91 33.3093 160.585 33.6933 160.179 33.992C159.774 34.28 159.31 34.488 158.787 34.616C158.265 34.744 157.726 34.808 157.171 34.808C157.118 34.808 157.027 34.808 156.899 34.808C156.782 34.808 156.654 34.808 156.515 34.808C156.387 34.7973 156.259 34.7867 156.131 34.776C156.003 34.7653 155.913 34.7547 155.859 34.744V39H154.531V27.912ZM157.267 28.824C156.99 28.824 156.723 28.8293 156.467 28.84C156.211 28.8507 156.009 28.8773 155.859 28.92V33.56C155.913 33.5813 155.998 33.5973 156.115 33.608C156.233 33.608 156.355 33.6133 156.483 33.624C156.611 33.624 156.734 33.624 156.851 33.624C156.969 33.624 157.054 33.624 157.107 33.624C157.47 33.624 157.827 33.592 158.179 33.528C158.542 33.4533 158.867 33.3253 159.155 33.144C159.443 32.9627 159.673 32.7067 159.843 32.376C160.025 32.0453 160.115 31.624 160.115 31.112C160.115 30.6747 160.03 30.312 159.859 30.024C159.699 29.7253 159.481 29.4907 159.203 29.32C158.937 29.1387 158.633 29.0107 158.291 28.936C157.95 28.8613 157.609 28.824 157.267 28.824Z" fill="black"/>
</svg>
