<svg width="121" height="64" viewBox="0 0 121 64" fill="none" xmlns="http://www.w3.org/2000/svg">
<rect width="121" height="64" fill="white"/>
<rect x="2" y="6" width="113" height="56" fill="white" stroke="black" stroke-width="4"/>
<path d="M31.328 31.016C31.1467 30.9413 30.944 30.888 30.72 30.856C30.5067 30.8133 30.2453 30.792 29.936 30.792C29.4987 30.792 29.0667 30.872 28.64 31.032C28.224 31.192 27.8507 31.4533 27.52 31.816C27.2 32.1787 26.9387 32.6533 26.736 33.24C26.544 33.8267 26.448 34.5467 26.448 35.4C26.448 36.168 26.5333 36.84 26.704 37.416C26.8853 37.992 27.1307 38.472 27.44 38.856C27.76 39.24 28.1387 39.528 28.576 39.72C29.024 39.912 29.52 40.008 30.064 40.008C30.3413 40.008 30.5973 39.9867 30.832 39.944C31.0773 39.8907 31.3013 39.8213 31.504 39.736V38.136H32.688V40.296L32.704 40.328C32.384 40.5733 31.9787 40.7813 31.488 40.952C30.9973 41.112 30.4 41.192 29.696 41.192C29.024 41.192 28.4 41.08 27.824 40.856C27.2587 40.6213 26.768 40.2693 26.352 39.8C25.936 39.3307 25.6107 38.7333 25.376 38.008C25.152 37.272 25.04 36.4027 25.04 35.4C25.04 34.3547 25.168 33.4693 25.424 32.744C25.68 32.008 26.0267 31.4107 26.464 30.952C26.9013 30.4827 27.408 30.1413 27.984 29.928C28.5707 29.7147 29.1947 29.608 29.856 29.608C30.2187 29.608 30.5333 29.624 30.8 29.656C31.0667 29.6773 31.3013 29.7147 31.504 29.768C31.7067 29.8107 31.8827 29.8693 32.032 29.944C32.192 30.0187 32.3467 30.104 32.496 30.2H32.512V32.728H31.328V31.016ZM37.5937 29.912C37.9991 29.8373 38.4631 29.7787 38.9857 29.736C39.5191 29.6933 40.0044 29.672 40.4418 29.672C40.9324 29.672 41.3964 29.7253 41.8337 29.832C42.2817 29.9387 42.6711 30.1147 43.0017 30.36C43.3431 30.6053 43.6151 30.9253 43.8177 31.32C44.0204 31.7147 44.1217 32.1947 44.1217 32.76C44.1217 33.1973 44.0471 33.5867 43.8977 33.928C43.7591 34.2587 43.5831 34.5467 43.3698 34.792C43.1671 35.0267 42.9538 35.2187 42.7298 35.368C42.5057 35.5173 42.3137 35.624 42.1537 35.688L45.1138 41H43.5617L40.9218 36.072H38.9217V41H37.5937V29.912ZM40.4737 30.824C40.3351 30.824 40.1911 30.824 40.0417 30.824C39.8924 30.824 39.7484 30.8293 39.6097 30.84C39.4711 30.8507 39.3377 30.8613 39.2097 30.872C39.0924 30.8827 38.9964 30.8987 38.9217 30.92V35.048H40.1697C40.9057 35.048 41.5137 34.8667 41.9938 34.504C42.4737 34.1413 42.7137 33.576 42.7137 32.808C42.7137 32.232 42.5164 31.7573 42.1217 31.384C41.7271 31.0107 41.1777 30.824 40.4737 30.824ZM49.6995 29.8H56.2755V30.984H51.0275V34.648H55.8755V35.832H51.0275V39.816H56.3555V41H49.6995V29.8ZM66.8773 37.896H62.5733L61.5493 41H60.2373L63.9813 29.8H65.5493L69.3253 41H67.9333L66.8773 37.896ZM62.9893 36.744H66.5093L64.8613 31.48H64.6693L62.9893 36.744ZM72.615 29.8H80.935V32.728H79.751V30.984H77.431V39.816H79.191V41H74.343V39.816H76.103V30.984H73.799V32.728H72.615V29.8ZM85.6808 29.8H92.2568V30.984H87.0088V34.648H91.8568V35.832H87.0088V39.816H92.3368V41H85.6808V29.8Z" fill="black"/>
</svg>
