<svg width="121" height="64" viewBox="0 0 121 64" fill="none" xmlns="http://www.w3.org/2000/svg">
<g clip-path="url(#clip0_296_11)">
<rect width="121" height="64" fill="white"/>
<rect x="2" y="6" width="113" height="56" fill="white" stroke="black" stroke-width="4"/>
<rect x="6" y="2" width="113" height="56" fill="white" stroke="black" stroke-width="4"/>
<path d="M35.328 27.016C35.1467 26.9413 34.944 26.888 34.72 26.856C34.5067 26.8133 34.2453 26.792 33.936 26.792C33.4987 26.792 33.0667 26.872 32.64 27.032C32.224 27.192 31.8507 27.4533 31.52 27.816C31.2 28.1787 30.9387 28.6533 30.736 29.24C30.544 29.8267 30.448 30.5467 30.448 31.4C30.448 32.168 30.5333 32.84 30.704 33.416C30.8853 33.992 31.1307 34.472 31.44 34.856C31.76 35.24 32.1387 35.528 32.576 35.72C33.024 35.912 33.52 36.008 34.064 36.008C34.3413 36.008 34.5973 35.9867 34.832 35.944C35.0773 35.8907 35.3013 35.8213 35.504 35.736V34.136H36.688V36.296L36.704 36.328C36.384 36.5733 35.9787 36.7813 35.488 36.952C34.9973 37.112 34.4 37.192 33.696 37.192C33.024 37.192 32.4 37.08 31.824 36.856C31.2587 36.6213 30.768 36.2693 30.352 35.8C29.936 35.3307 29.6107 34.7333 29.376 34.008C29.152 33.272 29.04 32.4027 29.04 31.4C29.04 30.3547 29.168 29.4693 29.424 28.744C29.68 28.008 30.0267 27.4107 30.464 26.952C30.9013 26.4827 31.408 26.1413 31.984 25.928C32.5707 25.7147 33.1947 25.608 33.856 25.608C34.2187 25.608 34.5333 25.624 34.8 25.656C35.0667 25.6773 35.3013 25.7147 35.504 25.768C35.7067 25.8107 35.8827 25.8693 36.032 25.944C36.192 26.0187 36.3467 26.104 36.496 26.2H36.512V28.728H35.328V27.016ZM41.5937 25.912C41.9991 25.8373 42.4631 25.7787 42.9857 25.736C43.5191 25.6933 44.0044 25.672 44.4418 25.672C44.9324 25.672 45.3964 25.7253 45.8337 25.832C46.2817 25.9387 46.6711 26.1147 47.0017 26.36C47.3431 26.6053 47.6151 26.9253 47.8177 27.32C48.0204 27.7147 48.1217 28.1947 48.1217 28.76C48.1217 29.1973 48.0471 29.5867 47.8977 29.928C47.7591 30.2587 47.5831 30.5467 47.3698 30.792C47.1671 31.0267 46.9538 31.2187 46.7298 31.368C46.5057 31.5173 46.3137 31.624 46.1537 31.688L49.1138 37H47.5617L44.9218 32.072H42.9217V37H41.5937V25.912ZM44.4737 26.824C44.3351 26.824 44.1911 26.824 44.0417 26.824C43.8924 26.824 43.7484 26.8293 43.6097 26.84C43.4711 26.8507 43.3377 26.8613 43.2097 26.872C43.0924 26.8827 42.9964 26.8987 42.9217 26.92V31.048H44.1697C44.9057 31.048 45.5137 30.8667 45.9938 30.504C46.4737 30.1413 46.7137 29.576 46.7137 28.808C46.7137 28.232 46.5164 27.7573 46.1217 27.384C45.7271 27.0107 45.1777 26.824 44.4737 26.824ZM53.6995 25.8H60.2755V26.984H55.0275V30.648H59.8755V31.832H55.0275V35.816H60.3555V37H53.6995V25.8ZM70.8773 33.896H66.5733L65.5493 37H64.2373L67.9813 25.8H69.5493L73.3253 37H71.9333L70.8773 33.896ZM66.9893 32.744H70.5093L68.8613 27.48H68.6693L66.9893 32.744ZM76.615 25.8H84.935V28.728H83.751V26.984H81.431V35.816H83.191V37H78.343V35.816H80.103V26.984H77.799V28.728H76.615V25.8ZM89.6808 25.8H96.2568V26.984H91.0088V30.648H95.8568V31.832H91.0088V35.816H96.3368V37H89.6808V25.8Z" fill="black"/>
</g>
<defs>
<clipPath id="clip0_296_11">
<rect width="121" height="64" fill="white"/>
</clipPath>
</defs>
</svg>
