<svg width="188" height="64" viewBox="0 0 188 64" fill="none" xmlns="http://www.w3.org/2000/svg">
<g clip-path="url(#clip0_312_2)">
<rect width="188" height="64" fill="white"/>
<rect x="2" y="6" width="180" height="56" fill="white" stroke="black" stroke-width="4"/>
<rect x="6" y="2" width="180" height="56" fill="white" stroke="black" stroke-width="4"/>
<path d="M32.328 25.016C32.1467 24.9413 31.944 24.888 31.72 24.856C31.5067 24.8133 31.2453 24.792 30.936 24.792C30.4987 24.792 30.0667 24.872 29.64 25.032C29.224 25.192 28.8507 25.4533 28.52 25.816C28.2 26.1787 27.9387 26.6533 27.736 27.24C27.544 27.8267 27.448 28.5467 27.448 29.4C27.448 30.168 27.5333 30.84 27.704 31.416C27.8853 31.992 28.1307 32.472 28.44 32.856C28.76 33.24 29.1387 33.528 29.576 33.72C30.024 33.912 30.52 34.008 31.064 34.008C31.3413 34.008 31.5973 33.9867 31.832 33.944C32.0773 33.8907 32.3013 33.8213 32.504 33.736V32.136H33.688V34.296L33.704 34.328C33.384 34.5733 32.9787 34.7813 32.488 34.952C31.9973 35.112 31.4 35.192 30.696 35.192C30.024 35.192 29.4 35.08 28.824 34.856C28.2587 34.6213 27.768 34.2693 27.352 33.8C26.936 33.3307 26.6107 32.7333 26.376 32.008C26.152 31.272 26.04 30.4027 26.04 29.4C26.04 28.3547 26.168 27.4693 26.424 26.744C26.68 26.008 27.0267 25.4107 27.464 24.952C27.9013 24.4827 28.408 24.1413 28.984 23.928C29.5707 23.7147 30.1947 23.608 30.856 23.608C31.2187 23.608 31.5333 23.624 31.8 23.656C32.0667 23.6773 32.3013 23.7147 32.504 23.768C32.7067 23.8107 32.8827 23.8693 33.032 23.944C33.192 24.0187 33.3467 24.104 33.496 24.2H33.512V26.728H32.328V25.016ZM38.5937 23.912C38.9991 23.8373 39.4631 23.7787 39.9857 23.736C40.5191 23.6933 41.0044 23.672 41.4418 23.672C41.9324 23.672 42.3964 23.7253 42.8337 23.832C43.2817 23.9387 43.6711 24.1147 44.0017 24.36C44.3431 24.6053 44.6151 24.9253 44.8177 25.32C45.0204 25.7147 45.1217 26.1947 45.1217 26.76C45.1217 27.1973 45.0471 27.5867 44.8977 27.928C44.7591 28.2587 44.5831 28.5467 44.3698 28.792C44.1671 29.0267 43.9538 29.2187 43.7298 29.368C43.5057 29.5173 43.3137 29.624 43.1537 29.688L46.1138 35H44.5617L41.9218 30.072H39.9217V35H38.5937V23.912ZM41.4737 24.824C41.3351 24.824 41.1911 24.824 41.0417 24.824C40.8924 24.824 40.7484 24.8293 40.6097 24.84C40.4711 24.8507 40.3377 24.8613 40.2097 24.872C40.0924 24.8827 39.9964 24.8987 39.9217 24.92V29.048H41.1697C41.9057 29.048 42.5137 28.8667 42.9938 28.504C43.4737 28.1413 43.7137 27.576 43.7137 26.808C43.7137 26.232 43.5164 25.7573 43.1217 25.384C42.7271 25.0107 42.1777 24.824 41.4737 24.824ZM50.6995 23.8H57.2755V24.984H52.0275V28.648H56.8755V29.832H52.0275V33.816H57.3555V35H50.6995V23.8ZM67.8773 31.896H63.5733L62.5493 35H61.2373L64.9813 23.8H66.5493L70.3253 35H68.9333L67.8773 31.896ZM63.9893 30.744H67.5093L65.8613 25.48H65.6693L63.9893 30.744ZM73.615 23.8H81.935V26.728H80.751V24.984H78.431V33.816H80.191V35H75.343V33.816H77.103V24.984H74.799V26.728H73.615V23.8ZM86.6808 23.8H93.2568V24.984H88.0088V28.648H92.8568V29.832H88.0088V33.816H93.3368V35H86.6808V23.8ZM115.948 24.904C115.586 24.8293 115.143 24.792 114.62 24.792C114.172 24.792 113.74 24.872 113.324 25.032C112.919 25.1813 112.556 25.4373 112.236 25.8C111.927 26.1627 111.676 26.6373 111.484 27.224C111.303 27.8107 111.212 28.536 111.212 29.4C111.212 30.9787 111.5 32.1413 112.076 32.888C112.663 33.6347 113.506 34.008 114.604 34.008C115.287 34.008 115.868 33.8747 116.348 33.608V30.488H114.044V29.416H117.484V34.344C117.314 34.472 117.106 34.5893 116.86 34.696C116.626 34.8027 116.37 34.8933 116.092 34.968C115.826 35.0427 115.543 35.096 115.244 35.128C114.956 35.1707 114.674 35.192 114.396 35.192C113.682 35.192 113.042 35.08 112.476 34.856C111.911 34.6213 111.431 34.2693 111.036 33.8C110.642 33.32 110.338 32.7173 110.124 31.992C109.911 31.256 109.804 30.392 109.804 29.4C109.804 28.3653 109.938 27.48 110.204 26.744C110.471 26.008 110.823 25.4107 111.26 24.952C111.698 24.4827 112.199 24.1413 112.764 23.928C113.33 23.7147 113.911 23.608 114.508 23.608C115.148 23.608 115.676 23.6453 116.092 23.72C116.508 23.784 116.86 23.8747 117.148 23.992L117.132 24.056V26.728H115.948V24.904ZM122.55 23.912C122.955 23.8373 123.419 23.7787 123.942 23.736C124.475 23.6933 124.961 23.672 125.398 23.672C125.889 23.672 126.353 23.7253 126.79 23.832C127.238 23.9387 127.627 24.1147 127.958 24.36C128.299 24.6053 128.571 24.9253 128.774 25.32C128.977 25.7147 129.078 26.1947 129.078 26.76C129.078 27.1973 129.003 27.5867 128.854 27.928C128.715 28.2587 128.539 28.5467 128.326 28.792C128.123 29.0267 127.91 29.2187 127.686 29.368C127.462 29.5173 127.27 29.624 127.11 29.688L130.07 35H128.518L125.878 30.072H123.878V35H122.55V23.912ZM125.43 24.824C125.291 24.824 125.147 24.824 124.998 24.824C124.849 24.824 124.705 24.8293 124.566 24.84C124.427 24.8507 124.294 24.8613 124.166 24.872C124.049 24.8827 123.953 24.8987 123.878 24.92V29.048H125.126C125.862 29.048 126.47 28.8667 126.95 28.504C127.43 28.1413 127.67 27.576 127.67 26.808C127.67 26.232 127.473 25.7573 127.078 25.384C126.683 25.0107 126.134 24.824 125.43 24.824ZM133.712 29.4C133.712 27.544 134.037 26.1147 134.688 25.112C135.349 24.1093 136.362 23.608 137.728 23.608C138.474 23.608 139.104 23.7467 139.616 24.024C140.138 24.3013 140.56 24.696 140.88 25.208C141.2 25.7093 141.429 26.3173 141.568 27.032C141.706 27.736 141.776 28.5253 141.776 29.4C141.776 31.256 141.445 32.6853 140.784 33.688C140.133 34.6907 139.114 35.192 137.728 35.192C136.992 35.192 136.368 35.0533 135.856 34.776C135.344 34.4987 134.928 34.1093 134.608 33.608C134.288 33.096 134.058 32.488 133.92 31.784C133.781 31.0693 133.712 30.2747 133.712 29.4ZM135.12 29.4C135.12 30.0187 135.157 30.6053 135.232 31.16C135.317 31.7147 135.461 32.2053 135.664 32.632C135.866 33.048 136.133 33.384 136.464 33.64C136.794 33.8853 137.216 34.008 137.728 34.008C138.645 34.008 139.312 33.6347 139.728 32.888C140.154 32.1413 140.368 30.9787 140.368 29.4C140.368 28.792 140.325 28.2107 140.24 27.656C140.165 27.0907 140.026 26.6 139.824 26.184C139.621 25.7573 139.349 25.4213 139.008 25.176C138.666 24.92 138.24 24.792 137.728 24.792C136.821 24.792 136.16 25.1707 135.744 25.928C135.328 26.6747 135.12 27.832 135.12 29.4ZM152.298 23.8H153.578V31.272C153.578 31.944 153.487 32.5253 153.306 33.016C153.135 33.5067 152.89 33.912 152.57 34.232C152.25 34.5413 151.86 34.7707 151.402 34.92C150.943 35.0693 150.436 35.144 149.882 35.144C148.559 35.144 147.562 34.8453 146.89 34.248C146.228 33.6507 145.898 32.744 145.898 31.528V23.8H147.226V30.904C147.226 31.4693 147.279 31.9493 147.386 32.344C147.503 32.728 147.668 33.0427 147.882 33.288C148.106 33.5227 148.383 33.6933 148.714 33.8C149.055 33.9067 149.45 33.96 149.898 33.96C150.762 33.96 151.375 33.7253 151.738 33.256C152.111 32.776 152.298 31.992 152.298 30.904V23.8ZM158.531 23.912C158.937 23.816 159.374 23.752 159.843 23.72C160.313 23.688 160.777 23.672 161.235 23.672C161.726 23.672 162.222 23.72 162.723 23.816C163.235 23.912 163.699 24.088 164.115 24.344C164.531 24.6 164.867 24.952 165.123 25.4C165.39 25.848 165.523 26.4187 165.523 27.112C165.523 27.7947 165.401 28.3707 165.155 28.84C164.91 29.3093 164.585 29.6933 164.179 29.992C163.774 30.28 163.31 30.488 162.787 30.616C162.265 30.744 161.726 30.808 161.171 30.808C161.118 30.808 161.027 30.808 160.899 30.808C160.782 30.808 160.654 30.808 160.515 30.808C160.387 30.7973 160.259 30.7867 160.131 30.776C160.003 30.7653 159.913 30.7547 159.859 30.744V35H158.531V23.912ZM161.267 24.824C160.99 24.824 160.723 24.8293 160.467 24.84C160.211 24.8507 160.009 24.8773 159.859 24.92V29.56C159.913 29.5813 159.998 29.5973 160.115 29.608C160.233 29.608 160.355 29.6133 160.483 29.624C160.611 29.624 160.734 29.624 160.851 29.624C160.969 29.624 161.054 29.624 161.107 29.624C161.47 29.624 161.827 29.592 162.179 29.528C162.542 29.4533 162.867 29.3253 163.155 29.144C163.443 28.9627 163.673 28.7067 163.843 28.376C164.025 28.0453 164.115 27.624 164.115 27.112C164.115 26.6747 164.03 26.312 163.859 26.024C163.699 25.7253 163.481 25.4907 163.203 25.32C162.937 25.1387 162.633 25.0107 162.291 24.936C161.95 24.8613 161.609 24.824 161.267 24.824Z" fill="black"/>
</g>
<defs>
<clipPath id="clip0_312_2">
<rect width="188" height="64" fill="white"/>
</clipPath>
</defs>
</svg>
