<svg width="60" height="60" viewBox="0 0 60 60" fill="none" xmlns="http://www.w3.org/2000/svg">
<rect width="60" height="60" fill="white"/>
<rect x="2" y="6" width="52" height="52" fill="white" stroke="black" stroke-width="4"/>
<path d="M22.6369 45.9204C22.4322 45.834 22.2622 45.6819 22.1535 45.4882C22.0449 45.2944 22.0039 45.07 22.0369 44.8504L23.8569 33.0004H19.0269C18.8738 33.0045 18.7217 32.9734 18.5825 32.9094C18.4434 32.8455 18.3207 32.7504 18.2241 32.6315C18.1274 32.5127 18.0594 32.3732 18.0252 32.2239C17.991 32.0746 17.9916 31.9194 18.0269 31.7704L21.0269 18.7704C21.0797 18.5466 21.2079 18.3479 21.3901 18.2077C21.5722 18.0674 21.7971 17.9942 22.0269 18.0004H32.0269C32.1763 17.9998 32.3239 18.0328 32.4589 18.0968C32.5939 18.1609 32.7128 18.2543 32.8069 18.3704C32.9023 18.4877 32.9699 18.6251 33.0046 18.7724C33.0392 18.9196 33.04 19.0728 33.0069 19.2204L31.2769 27.0004H36.0269C36.2143 27 36.3981 27.0523 36.5572 27.1513C36.7163 27.2503 36.8444 27.3921 36.9269 27.5604C36.9986 27.7219 37.0261 27.8995 37.0068 28.0752C36.9875 28.2509 36.922 28.4183 36.8169 28.5604L23.8169 45.5604C23.729 45.6906 23.6117 45.7983 23.4745 45.8748C23.3372 45.9512 23.1839 45.9942 23.0269 46.0004C22.8931 45.9979 22.7609 45.9707 22.6369 45.9204V45.9204ZM28.7769 29.0004L30.7769 20.0004H22.8269L20.2869 31.0004H26.1969L24.6069 41.2804L34.0269 29.0004H28.7769Z" fill="black"/>
</svg>
