<svg width="60" height="60" viewBox="0 0 60 60" fill="none" xmlns="http://www.w3.org/2000/svg">
<g clip-path="url(#clip0_202_22)">
<rect width="60" height="60" fill="white"/>
<rect x="2" y="6" width="52" height="52" fill="white" stroke="black" stroke-width="4"/>
<rect x="6" y="2" width="52" height="52" fill="white" stroke="black" stroke-width="4"/>
<path d="M26.13 18.89L26.8 16H34.8L32.8 25H38L35.51 28.25L36.94 29.68L40.81 24.61C40.9151 24.4679 40.9806 24.3005 40.9999 24.1248C41.0192 23.9492 40.9917 23.7715 40.92 23.61C40.8434 23.4292 40.7154 23.275 40.5518 23.1665C40.3882 23.0581 40.1963 23.0002 40 23H35.25L37 15.22C37.0331 15.0724 37.0323 14.9192 36.9977 14.772C36.963 14.6248 36.8954 14.4873 36.8 14.37C36.7038 14.2513 36.5816 14.1562 36.443 14.0921C36.3043 14.028 36.1528 13.9964 36 14H26C25.7702 13.9938 25.5453 14.0671 25.3632 14.2073C25.181 14.3475 25.0528 14.5463 25 14.77L24.46 17.22L26.13 18.89ZM45 40.59L35.69 31.28L34.27 29.85L25.6 21.19L23.93 19.52L18.41 14L17 15.41L23.4 21.82L22 27.77C21.9647 27.9191 21.9641 28.0742 21.9983 28.2235C22.0325 28.3729 22.1006 28.5123 22.1972 28.6312C22.2938 28.75 22.4165 28.8451 22.5557 28.9091C22.6948 28.973 22.8469 29.0041 23 29H27.83L26 40.85C25.967 41.0696 26.008 41.2941 26.1167 41.4878C26.2253 41.6815 26.3954 41.8336 26.6 41.92C26.7271 41.9716 26.8628 41.9987 27 42C27.1527 41.9996 27.3033 41.9643 27.4403 41.8967C27.5772 41.8291 27.6968 41.731 27.79 41.61L34.47 32.88L43.59 42L45 40.59ZM24.26 27L25.07 23.48L28.59 27H24.26ZM28.58 37.28L30 28.37L33 31.45L28.58 37.28Z" fill="black"/>
</g>
<defs>
<clipPath id="clip0_202_22">
<rect width="60" height="60" fill="white"/>
</clipPath>
</defs>
</svg>
