<svg width="60" height="60" viewBox="0 0 60 60" fill="none" xmlns="http://www.w3.org/2000/svg">
<g clip-path="url(#clip0_202_11)">
<rect width="60" height="60" fill="white"/>
<rect x="2" y="6" width="52" height="52" fill="white" stroke="black" stroke-width="4"/>
<rect x="6" y="2" width="52" height="52" fill="white" stroke="black" stroke-width="4"/>
<path d="M26.6369 41.9204C26.4322 41.834 26.2622 41.6819 26.1535 41.4882C26.0449 41.2944 26.0039 41.07 26.0369 40.8504L27.8569 29.0004H23.0269C22.8738 29.0045 22.7217 28.9734 22.5825 28.9094C22.4434 28.8455 22.3207 28.7504 22.2241 28.6315C22.1274 28.5127 22.0594 28.3732 22.0252 28.2239C21.991 28.0746 21.9916 27.9194 22.0269 27.7704L25.0269 14.7704C25.0797 14.5466 25.2079 14.3479 25.3901 14.2077C25.5722 14.0674 25.7971 13.9942 26.0269 14.0004H36.0269C36.1763 13.9998 36.3239 14.0328 36.4589 14.0968C36.5939 14.1609 36.7128 14.2543 36.8069 14.3704C36.9023 14.4877 36.9699 14.6251 37.0046 14.7724C37.0392 14.9196 37.04 15.0728 37.0069 15.2204L35.2769 23.0004H40.0269C40.2143 23 40.3981 23.0523 40.5572 23.1513C40.7163 23.2503 40.8444 23.3921 40.9269 23.5604C40.9986 23.7219 41.0261 23.8995 41.0068 24.0752C40.9875 24.2509 40.922 24.4183 40.8169 24.5604L27.8169 41.5604C27.729 41.6906 27.6117 41.7983 27.4745 41.8748C27.3372 41.9512 27.1839 41.9942 27.0269 42.0004C26.8931 41.9979 26.7609 41.9707 26.6369 41.9204V41.9204ZM32.7769 25.0004L34.7769 16.0004H26.8269L24.2869 27.0004H30.1969L28.6069 37.2804L38.0269 25.0004H32.7769Z" fill="black"/>
</g>
<defs>
<clipPath id="clip0_202_11">
<rect width="60" height="60" fill="white"/>
</clipPath>
</defs>
</svg>
