<svg width="60" height="60" viewBox="0 0 60 60" fill="none" xmlns="http://www.w3.org/2000/svg">
<rect width="60" height="60" fill="white"/>
<rect x="2" y="6" width="52" height="52" fill="white" stroke="black" stroke-width="4"/>
<path d="M22.13 22.89L22.8 20H30.8L28.8 29H34L31.51 32.25L32.94 33.68L36.81 28.61C36.9151 28.4679 36.9806 28.3005 36.9999 28.1248C37.0192 27.9492 36.9917 27.7715 36.92 27.61C36.8434 27.4292 36.7154 27.275 36.5518 27.1665C36.3882 27.0581 36.1963 27.0002 36 27H31.25L33 19.22C33.0331 19.0724 33.0323 18.9192 32.9977 18.772C32.963 18.6248 32.8954 18.4873 32.8 18.37C32.7038 18.2513 32.5816 18.1562 32.443 18.0921C32.3043 18.028 32.1528 17.9964 32 18H22C21.7702 17.9938 21.5453 18.0671 21.3632 18.2073C21.181 18.3475 21.0528 18.5463 21 18.77L20.46 21.22L22.13 22.89ZM41 44.59L31.69 35.28L30.27 33.85L21.6 25.19L19.93 23.52L14.41 18L13 19.41L19.4 25.82L18 31.77C17.9647 31.9191 17.9641 32.0742 17.9983 32.2235C18.0325 32.3729 18.1006 32.5123 18.1972 32.6312C18.2938 32.75 18.4165 32.8451 18.5557 32.9091C18.6948 32.973 18.8469 33.0041 19 33H23.83L22 44.85C21.967 45.0696 22.008 45.2941 22.1167 45.4878C22.2253 45.6815 22.3954 45.8336 22.6 45.92C22.7271 45.9716 22.8628 45.9987 23 46C23.1527 45.9996 23.3033 45.9643 23.4403 45.8967C23.5772 45.8291 23.6968 45.731 23.79 45.61L30.47 36.88L39.59 46L41 44.59ZM20.26 31L21.07 27.48L24.59 31H20.26ZM24.58 41.28L26 32.37L29 35.45L24.58 41.28Z" fill="black"/>
</svg>
