<svg width="165" height="64" viewBox="0 0 165 64" fill="none" xmlns="http://www.w3.org/2000/svg">
<rect width="165" height="64" fill="white"/>
<rect x="2" y="6" width="157" height="56" fill="white" stroke="black" stroke-width="4"/>
<path d="M23.552 27.8H29.888V35.032C29.888 36.376 29.568 37.4 28.928 38.104C28.288 38.808 27.3653 39.16 26.16 39.16C25.8507 39.16 25.5467 39.1333 25.248 39.08C24.9493 39.0267 24.672 38.9573 24.416 38.872C24.16 38.776 23.936 38.6747 23.744 38.568C23.5627 38.4613 23.4293 38.36 23.344 38.264L23.92 37.208C24.0373 37.2827 24.1653 37.3627 24.304 37.448C24.4533 37.5333 24.6133 37.6187 24.784 37.704C24.9653 37.7787 25.1627 37.8427 25.376 37.896C25.6 37.9493 25.8507 37.976 26.128 37.976C26.928 37.976 27.5307 37.7253 27.936 37.224C28.352 36.7227 28.56 35.912 28.56 34.792V28.984H23.552V27.8ZM34.7617 33.4C34.7617 31.544 35.0871 30.1147 35.7377 29.112C36.3991 28.1093 37.4124 27.608 38.7778 27.608C39.5244 27.608 40.1537 27.7467 40.6658 28.024C41.1884 28.3013 41.6097 28.696 41.9297 29.208C42.2497 29.7093 42.4791 30.3173 42.6178 31.032C42.7564 31.736 42.8258 32.5253 42.8258 33.4C42.8258 35.256 42.4951 36.6853 41.8337 37.688C41.1831 38.6907 40.1644 39.192 38.7778 39.192C38.0417 39.192 37.4177 39.0533 36.9057 38.776C36.3937 38.4987 35.9777 38.1093 35.6577 37.608C35.3377 37.096 35.1084 36.488 34.9697 35.784C34.8311 35.0693 34.7617 34.2747 34.7617 33.4ZM36.1697 33.4C36.1697 34.0187 36.2071 34.6053 36.2817 35.16C36.3671 35.7147 36.5111 36.2053 36.7137 36.632C36.9164 37.048 37.1831 37.384 37.5137 37.64C37.8444 37.8853 38.2657 38.008 38.7778 38.008C39.6951 38.008 40.3617 37.6347 40.7778 36.888C41.2044 36.1413 41.4177 34.9787 41.4177 33.4C41.4177 32.792 41.3751 32.2107 41.2898 31.656C41.2151 31.0907 41.0764 30.6 40.8737 30.184C40.6711 29.7573 40.3991 29.4213 40.0577 29.176C39.7164 28.92 39.2897 28.792 38.7778 28.792C37.8711 28.792 37.2097 29.1707 36.7937 29.928C36.3777 30.6747 36.1697 31.832 36.1697 33.4ZM46.9475 27.8H54.6275V28.984H51.4435V37.816H54.6275V39H46.9475V37.816H50.1155V28.984H46.9475V27.8ZM61.1173 31.992L60.2533 30.376H60.1893L60.3493 31.992V39H59.1013V27.8H59.9653L64.4773 34.776L65.3093 36.312H65.3893L65.2133 34.776V27.8H66.4613V39H65.5973L61.1173 31.992ZM88.9608 28.904C88.5981 28.8293 88.1554 28.792 87.6328 28.792C87.1848 28.792 86.7528 28.872 86.3368 29.032C85.9314 29.1813 85.5688 29.4373 85.2488 29.8C84.9394 30.1627 84.6888 30.6373 84.4968 31.224C84.3154 31.8107 84.2248 32.536 84.2248 33.4C84.2248 34.9787 84.5128 36.1413 85.0888 36.888C85.6754 37.6347 86.5181 38.008 87.6168 38.008C88.2994 38.008 88.8808 37.8747 89.3608 37.608V34.488H87.0568V33.416H90.4968V38.344C90.3261 38.472 90.1181 38.5893 89.8728 38.696C89.6381 38.8027 89.3821 38.8933 89.1048 38.968C88.8381 39.0427 88.5554 39.096 88.2568 39.128C87.9688 39.1707 87.6861 39.192 87.4088 39.192C86.6941 39.192 86.0541 39.08 85.4888 38.856C84.9234 38.6213 84.4434 38.2693 84.0488 37.8C83.6541 37.32 83.3501 36.7173 83.1368 35.992C82.9234 35.256 82.8168 34.392 82.8168 33.4C82.8168 32.3653 82.9501 31.48 83.2168 30.744C83.4834 30.008 83.8354 29.4107 84.2728 28.952C84.7101 28.4827 85.2114 28.1413 85.7768 27.928C86.3421 27.7147 86.9234 27.608 87.5208 27.608C88.1608 27.608 88.6888 27.6453 89.1048 27.72C89.5208 27.784 89.8728 27.8747 90.1608 27.992L90.1448 28.056V30.728H88.9608V28.904ZM95.5625 27.912C95.9678 27.8373 96.4318 27.7787 96.9545 27.736C97.4878 27.6933 97.9732 27.672 98.4105 27.672C98.9012 27.672 99.3652 27.7253 99.8025 27.832C100.251 27.9387 100.64 28.1147 100.971 28.36C101.312 28.6053 101.584 28.9253 101.787 29.32C101.989 29.7147 102.091 30.1947 102.091 30.76C102.091 31.1973 102.016 31.5867 101.867 31.928C101.728 32.2587 101.552 32.5467 101.339 32.792C101.136 33.0267 100.923 33.2187 100.699 33.368C100.475 33.5173 100.283 33.624 100.123 33.688L103.083 39H101.531L98.8905 34.072H96.8905V39H95.5625V27.912ZM98.4425 28.824C98.3038 28.824 98.1598 28.824 98.0105 28.824C97.8612 28.824 97.7172 28.8293 97.5785 28.84C97.4398 28.8507 97.3065 28.8613 97.1785 28.872C97.0612 28.8827 96.9652 28.8987 96.8905 28.92V33.048H98.1385C98.8745 33.048 99.4825 32.8667 99.9625 32.504C100.443 32.1413 100.683 31.576 100.683 30.808C100.683 30.232 100.485 29.7573 100.091 29.384C99.6958 29.0107 99.1465 28.824 98.4425 28.824ZM106.724 33.4C106.724 31.544 107.05 30.1147 107.7 29.112C108.362 28.1093 109.375 27.608 110.74 27.608C111.487 27.608 112.116 27.7467 112.628 28.024C113.151 28.3013 113.572 28.696 113.892 29.208C114.212 29.7093 114.442 30.3173 114.58 31.032C114.719 31.736 114.788 32.5253 114.788 33.4C114.788 35.256 114.458 36.6853 113.796 37.688C113.146 38.6907 112.127 39.192 110.74 39.192C110.004 39.192 109.38 39.0533 108.868 38.776C108.356 38.4987 107.94 38.1093 107.62 37.608C107.3 37.096 107.071 36.488 106.932 35.784C106.794 35.0693 106.724 34.2747 106.724 33.4ZM108.132 33.4C108.132 34.0187 108.17 34.6053 108.244 35.16C108.33 35.7147 108.474 36.2053 108.676 36.632C108.879 37.048 109.146 37.384 109.476 37.64C109.807 37.8853 110.228 38.008 110.74 38.008C111.658 38.008 112.324 37.6347 112.74 36.888C113.167 36.1413 113.38 34.9787 113.38 33.4C113.38 32.792 113.338 32.2107 113.252 31.656C113.178 31.0907 113.039 30.6 112.836 30.184C112.634 29.7573 112.362 29.4213 112.02 29.176C111.679 28.92 111.252 28.792 110.74 28.792C109.834 28.792 109.172 29.1707 108.756 29.928C108.34 30.6747 108.132 31.832 108.132 33.4ZM125.31 27.8H126.59V35.272C126.59 35.944 126.499 36.5253 126.318 37.016C126.147 37.5067 125.902 37.912 125.582 38.232C125.262 38.5413 124.873 38.7707 124.414 38.92C123.955 39.0693 123.449 39.144 122.894 39.144C121.571 39.144 120.574 38.8453 119.902 38.248C119.241 37.6507 118.91 36.744 118.91 35.528V27.8H120.238V34.904C120.238 35.4693 120.291 35.9493 120.398 36.344C120.515 36.728 120.681 37.0427 120.894 37.288C121.118 37.5227 121.395 37.6933 121.726 37.8C122.067 37.9067 122.462 37.96 122.91 37.96C123.774 37.96 124.387 37.7253 124.75 37.256C125.123 36.776 125.31 35.992 125.31 34.904V27.8ZM131.544 27.912C131.949 27.816 132.386 27.752 132.856 27.72C133.325 27.688 133.789 27.672 134.248 27.672C134.738 27.672 135.234 27.72 135.736 27.816C136.248 27.912 136.712 28.088 137.128 28.344C137.544 28.6 137.88 28.952 138.136 29.4C138.402 29.848 138.536 30.4187 138.536 31.112C138.536 31.7947 138.413 32.3707 138.168 32.84C137.922 33.3093 137.597 33.6933 137.192 33.992C136.786 34.28 136.322 34.488 135.8 34.616C135.277 34.744 134.738 34.808 134.184 34.808C134.13 34.808 134.04 34.808 133.912 34.808C133.794 34.808 133.666 34.808 133.528 34.808C133.4 34.7973 133.272 34.7867 133.144 34.776C133.016 34.7653 132.925 34.7547 132.872 34.744V39H131.544V27.912ZM134.28 28.824C134.002 28.824 133.736 28.8293 133.48 28.84C133.224 28.8507 133.021 28.8773 132.872 28.92V33.56C132.925 33.5813 133.01 33.5973 133.128 33.608C133.245 33.608 133.368 33.6133 133.496 33.624C133.624 33.624 133.746 33.624 133.864 33.624C133.981 33.624 134.066 33.624 134.12 33.624C134.482 33.624 134.84 33.592 135.192 33.528C135.554 33.4533 135.88 33.3253 136.168 33.144C136.456 32.9627 136.685 32.7067 136.856 32.376C137.037 32.0453 137.128 31.624 137.128 31.112C137.128 30.6747 137.042 30.312 136.872 30.024C136.712 29.7253 136.493 29.4907 136.216 29.32C135.949 29.1387 135.645 29.0107 135.304 28.936C134.962 28.8613 134.621 28.824 134.28 28.824Z" fill="black"/>
</svg>
