<svg width="99" height="64" viewBox="0 0 99 64" fill="none" xmlns="http://www.w3.org/2000/svg">
<rect width="99" height="64" fill="white"/>
<rect x="2" y="6" width="91" height="56" fill="white" stroke="black" stroke-width="4"/>
<path d="M26.552 29.8H32.888V37.032C32.888 38.376 32.568 39.4 31.928 40.104C31.288 40.808 30.3653 41.16 29.16 41.16C28.8507 41.16 28.5467 41.1333 28.248 41.08C27.9493 41.0267 27.672 40.9573 27.416 40.872C27.16 40.776 26.936 40.6747 26.744 40.568C26.5627 40.4613 26.4293 40.36 26.344 40.264L26.92 39.208C27.0373 39.2827 27.1653 39.3627 27.304 39.448C27.4533 39.5333 27.6133 39.6187 27.784 39.704C27.9653 39.7787 28.1627 39.8427 28.376 39.896C28.6 39.9493 28.8507 39.976 29.128 39.976C29.928 39.976 30.5307 39.7253 30.936 39.224C31.352 38.7227 31.56 37.912 31.56 36.792V30.984H26.552V29.8ZM37.7617 35.4C37.7617 33.544 38.0871 32.1147 38.7377 31.112C39.3991 30.1093 40.4124 29.608 41.7778 29.608C42.5244 29.608 43.1537 29.7467 43.6658 30.024C44.1884 30.3013 44.6097 30.696 44.9297 31.208C45.2497 31.7093 45.4791 32.3173 45.6178 33.032C45.7564 33.736 45.8258 34.5253 45.8258 35.4C45.8258 37.256 45.4951 38.6853 44.8337 39.688C44.1831 40.6907 43.1644 41.192 41.7778 41.192C41.0417 41.192 40.4177 41.0533 39.9057 40.776C39.3937 40.4987 38.9777 40.1093 38.6577 39.608C38.3377 39.096 38.1084 38.488 37.9697 37.784C37.8311 37.0693 37.7617 36.2747 37.7617 35.4ZM39.1697 35.4C39.1697 36.0187 39.2071 36.6053 39.2817 37.16C39.3671 37.7147 39.5111 38.2053 39.7137 38.632C39.9164 39.048 40.1831 39.384 40.5137 39.64C40.8444 39.8853 41.2657 40.008 41.7778 40.008C42.6951 40.008 43.3617 39.6347 43.7778 38.888C44.2044 38.1413 44.4177 36.9787 44.4177 35.4C44.4177 34.792 44.3751 34.2107 44.2898 33.656C44.2151 33.0907 44.0764 32.6 43.8737 32.184C43.6711 31.7573 43.3991 31.4213 43.0577 31.176C42.7164 30.92 42.2897 30.792 41.7778 30.792C40.8711 30.792 40.2097 31.1707 39.7937 31.928C39.3777 32.6747 39.1697 33.832 39.1697 35.4ZM49.9475 29.8H57.6275V30.984H54.4435V39.816H57.6275V41H49.9475V39.816H53.1155V30.984H49.9475V29.8ZM64.1173 33.992L63.2533 32.376H63.1893L63.3493 33.992V41H62.1013V29.8H62.9653L67.4773 36.776L68.3093 38.312H68.3893L68.2133 36.776V29.8H69.4613V41H68.5973L64.1173 33.992Z" fill="black"/>
</svg>
