<svg width="99" height="64" viewBox="0 0 99 64" fill="none" xmlns="http://www.w3.org/2000/svg">
<g clip-path="url(#clip0_295_3)">
<rect width="99" height="64" fill="white"/>
<rect x="2" y="6" width="91" height="56" fill="white" stroke="black" stroke-width="4"/>
<rect x="6" y="2" width="91" height="56" fill="white" stroke="black" stroke-width="4"/>
<path d="M30.552 25.8H36.888V33.032C36.888 34.376 36.568 35.4 35.928 36.104C35.288 36.808 34.3653 37.16 33.16 37.16C32.8507 37.16 32.5467 37.1333 32.248 37.08C31.9493 37.0267 31.672 36.9573 31.416 36.872C31.16 36.776 30.936 36.6747 30.744 36.568C30.5627 36.4613 30.4293 36.36 30.344 36.264L30.92 35.208C31.0373 35.2827 31.1653 35.3627 31.304 35.448C31.4533 35.5333 31.6133 35.6187 31.784 35.704C31.9653 35.7787 32.1627 35.8427 32.376 35.896C32.6 35.9493 32.8507 35.976 33.128 35.976C33.928 35.976 34.5307 35.7253 34.936 35.224C35.352 34.7227 35.56 33.912 35.56 32.792V26.984H30.552V25.8ZM41.7617 31.4C41.7617 29.544 42.0871 28.1147 42.7377 27.112C43.3991 26.1093 44.4124 25.608 45.7778 25.608C46.5244 25.608 47.1537 25.7467 47.6658 26.024C48.1884 26.3013 48.6097 26.696 48.9297 27.208C49.2497 27.7093 49.4791 28.3173 49.6178 29.032C49.7564 29.736 49.8258 30.5253 49.8258 31.4C49.8258 33.256 49.4951 34.6853 48.8337 35.688C48.1831 36.6907 47.1644 37.192 45.7778 37.192C45.0417 37.192 44.4177 37.0533 43.9057 36.776C43.3937 36.4987 42.9777 36.1093 42.6577 35.608C42.3377 35.096 42.1084 34.488 41.9697 33.784C41.8311 33.0693 41.7617 32.2747 41.7617 31.4ZM43.1697 31.4C43.1697 32.0187 43.2071 32.6053 43.2817 33.16C43.3671 33.7147 43.5111 34.2053 43.7137 34.632C43.9164 35.048 44.1831 35.384 44.5137 35.64C44.8444 35.8853 45.2657 36.008 45.7778 36.008C46.6951 36.008 47.3617 35.6347 47.7778 34.888C48.2044 34.1413 48.4177 32.9787 48.4177 31.4C48.4177 30.792 48.3751 30.2107 48.2898 29.656C48.2151 29.0907 48.0764 28.6 47.8737 28.184C47.6711 27.7573 47.3991 27.4213 47.0577 27.176C46.7164 26.92 46.2897 26.792 45.7778 26.792C44.8711 26.792 44.2097 27.1707 43.7937 27.928C43.3777 28.6747 43.1697 29.832 43.1697 31.4ZM53.9475 25.8H61.6275V26.984H58.4435V35.816H61.6275V37H53.9475V35.816H57.1155V26.984H53.9475V25.8ZM68.1173 29.992L67.2533 28.376H67.1893L67.3493 29.992V37H66.1013V25.8H66.9653L71.4773 32.776L72.3093 34.312H72.3893L72.2133 32.776V25.8H73.4613V37H72.5973L68.1173 29.992Z" fill="black"/>
</g>
<defs>
<clipPath id="clip0_295_3">
<rect width="99" height="64" fill="white"/>
</clipPath>
</defs>
</svg>
