<svg width="165" height="64" viewBox="0 0 165 64" fill="none" xmlns="http://www.w3.org/2000/svg">
<g clip-path="url(#clip0_316_12)">
<rect width="165" height="64" fill="white"/>
<rect x="2" y="6" width="157" height="56" fill="white" stroke="black" stroke-width="4"/>
<rect x="6" y="2" width="157" height="56" fill="white" stroke="black" stroke-width="4"/>
<path d="M27.552 23.8H33.888V31.032C33.888 32.376 33.568 33.4 32.928 34.104C32.288 34.808 31.3653 35.16 30.16 35.16C29.8507 35.16 29.5467 35.1333 29.248 35.08C28.9493 35.0267 28.672 34.9573 28.416 34.872C28.16 34.776 27.936 34.6747 27.744 34.568C27.5627 34.4613 27.4293 34.36 27.344 34.264L27.92 33.208C28.0373 33.2827 28.1653 33.3627 28.304 33.448C28.4533 33.5333 28.6133 33.6187 28.784 33.704C28.9653 33.7787 29.1627 33.8427 29.376 33.896C29.6 33.9493 29.8507 33.976 30.128 33.976C30.928 33.976 31.5307 33.7253 31.936 33.224C32.352 32.7227 32.56 31.912 32.56 30.792V24.984H27.552V23.8ZM38.7617 29.4C38.7617 27.544 39.0871 26.1147 39.7377 25.112C40.3991 24.1093 41.4124 23.608 42.7778 23.608C43.5244 23.608 44.1537 23.7467 44.6658 24.024C45.1884 24.3013 45.6097 24.696 45.9297 25.208C46.2497 25.7093 46.4791 26.3173 46.6178 27.032C46.7564 27.736 46.8258 28.5253 46.8258 29.4C46.8258 31.256 46.4951 32.6853 45.8337 33.688C45.1831 34.6907 44.1644 35.192 42.7778 35.192C42.0417 35.192 41.4177 35.0533 40.9057 34.776C40.3937 34.4987 39.9777 34.1093 39.6577 33.608C39.3377 33.096 39.1084 32.488 38.9697 31.784C38.8311 31.0693 38.7617 30.2747 38.7617 29.4ZM40.1697 29.4C40.1697 30.0187 40.2071 30.6053 40.2817 31.16C40.3671 31.7147 40.5111 32.2053 40.7137 32.632C40.9164 33.048 41.1831 33.384 41.5137 33.64C41.8444 33.8853 42.2657 34.008 42.7778 34.008C43.6951 34.008 44.3617 33.6347 44.7778 32.888C45.2044 32.1413 45.4177 30.9787 45.4177 29.4C45.4177 28.792 45.3751 28.2107 45.2898 27.656C45.2151 27.0907 45.0764 26.6 44.8737 26.184C44.6711 25.7573 44.3991 25.4213 44.0577 25.176C43.7164 24.92 43.2897 24.792 42.7778 24.792C41.8711 24.792 41.2097 25.1707 40.7937 25.928C40.3777 26.6747 40.1697 27.832 40.1697 29.4ZM50.9475 23.8H58.6275V24.984H55.4435V33.816H58.6275V35H50.9475V33.816H54.1155V24.984H50.9475V23.8ZM65.1173 27.992L64.2533 26.376H64.1893L64.3493 27.992V35H63.1013V23.8H63.9653L68.4773 30.776L69.3093 32.312H69.3893L69.2133 30.776V23.8H70.4613V35H69.5973L65.1173 27.992ZM92.9608 24.904C92.5981 24.8293 92.1554 24.792 91.6328 24.792C91.1848 24.792 90.7528 24.872 90.3368 25.032C89.9314 25.1813 89.5688 25.4373 89.2488 25.8C88.9394 26.1627 88.6888 26.6373 88.4968 27.224C88.3154 27.8107 88.2248 28.536 88.2248 29.4C88.2248 30.9787 88.5128 32.1413 89.0888 32.888C89.6754 33.6347 90.5181 34.008 91.6168 34.008C92.2994 34.008 92.8808 33.8747 93.3608 33.608V30.488H91.0568V29.416H94.4968V34.344C94.3261 34.472 94.1181 34.5893 93.8728 34.696C93.6381 34.8027 93.3821 34.8933 93.1048 34.968C92.8381 35.0427 92.5554 35.096 92.2568 35.128C91.9688 35.1707 91.6861 35.192 91.4088 35.192C90.6941 35.192 90.0541 35.08 89.4888 34.856C88.9234 34.6213 88.4434 34.2693 88.0488 33.8C87.6541 33.32 87.3501 32.7173 87.1368 31.992C86.9234 31.256 86.8168 30.392 86.8168 29.4C86.8168 28.3653 86.9501 27.48 87.2168 26.744C87.4834 26.008 87.8354 25.4107 88.2728 24.952C88.7101 24.4827 89.2114 24.1413 89.7768 23.928C90.3421 23.7147 90.9234 23.608 91.5208 23.608C92.1608 23.608 92.6888 23.6453 93.1048 23.72C93.5208 23.784 93.8728 23.8747 94.1608 23.992L94.1448 24.056V26.728H92.9608V24.904ZM99.5625 23.912C99.9678 23.8373 100.432 23.7787 100.955 23.736C101.488 23.6933 101.973 23.672 102.411 23.672C102.901 23.672 103.365 23.7253 103.803 23.832C104.251 23.9387 104.64 24.1147 104.971 24.36C105.312 24.6053 105.584 24.9253 105.787 25.32C105.989 25.7147 106.091 26.1947 106.091 26.76C106.091 27.1973 106.016 27.5867 105.867 27.928C105.728 28.2587 105.552 28.5467 105.339 28.792C105.136 29.0267 104.923 29.2187 104.699 29.368C104.475 29.5173 104.283 29.624 104.123 29.688L107.083 35H105.531L102.891 30.072H100.891V35H99.5625V23.912ZM102.443 24.824C102.304 24.824 102.16 24.824 102.011 24.824C101.861 24.824 101.717 24.8293 101.579 24.84C101.44 24.8507 101.307 24.8613 101.179 24.872C101.061 24.8827 100.965 24.8987 100.891 24.92V29.048H102.139C102.875 29.048 103.483 28.8667 103.963 28.504C104.443 28.1413 104.683 27.576 104.683 26.808C104.683 26.232 104.485 25.7573 104.091 25.384C103.696 25.0107 103.147 24.824 102.443 24.824ZM110.724 29.4C110.724 27.544 111.05 26.1147 111.7 25.112C112.362 24.1093 113.375 23.608 114.74 23.608C115.487 23.608 116.116 23.7467 116.628 24.024C117.151 24.3013 117.572 24.696 117.892 25.208C118.212 25.7093 118.442 26.3173 118.58 27.032C118.719 27.736 118.788 28.5253 118.788 29.4C118.788 31.256 118.458 32.6853 117.796 33.688C117.146 34.6907 116.127 35.192 114.74 35.192C114.004 35.192 113.38 35.0533 112.868 34.776C112.356 34.4987 111.94 34.1093 111.62 33.608C111.3 33.096 111.071 32.488 110.932 31.784C110.794 31.0693 110.724 30.2747 110.724 29.4ZM112.132 29.4C112.132 30.0187 112.17 30.6053 112.244 31.16C112.33 31.7147 112.474 32.2053 112.676 32.632C112.879 33.048 113.146 33.384 113.476 33.64C113.807 33.8853 114.228 34.008 114.74 34.008C115.658 34.008 116.324 33.6347 116.74 32.888C117.167 32.1413 117.38 30.9787 117.38 29.4C117.38 28.792 117.338 28.2107 117.252 27.656C117.178 27.0907 117.039 26.6 116.836 26.184C116.634 25.7573 116.362 25.4213 116.02 25.176C115.679 24.92 115.252 24.792 114.74 24.792C113.834 24.792 113.172 25.1707 112.756 25.928C112.34 26.6747 112.132 27.832 112.132 29.4ZM129.31 23.8H130.59V31.272C130.59 31.944 130.499 32.5253 130.318 33.016C130.147 33.5067 129.902 33.912 129.582 34.232C129.262 34.5413 128.873 34.7707 128.414 34.92C127.955 35.0693 127.449 35.144 126.894 35.144C125.571 35.144 124.574 34.8453 123.902 34.248C123.241 33.6507 122.91 32.744 122.91 31.528V23.8H124.238V30.904C124.238 31.4693 124.291 31.9493 124.398 32.344C124.515 32.728 124.681 33.0427 124.894 33.288C125.118 33.5227 125.395 33.6933 125.726 33.8C126.067 33.9067 126.462 33.96 126.91 33.96C127.774 33.96 128.387 33.7253 128.75 33.256C129.123 32.776 129.31 31.992 129.31 30.904V23.8ZM135.544 23.912C135.949 23.816 136.386 23.752 136.856 23.72C137.325 23.688 137.789 23.672 138.248 23.672C138.738 23.672 139.234 23.72 139.736 23.816C140.248 23.912 140.712 24.088 141.128 24.344C141.544 24.6 141.88 24.952 142.136 25.4C142.402 25.848 142.536 26.4187 142.536 27.112C142.536 27.7947 142.413 28.3707 142.168 28.84C141.922 29.3093 141.597 29.6933 141.192 29.992C140.786 30.28 140.322 30.488 139.8 30.616C139.277 30.744 138.738 30.808 138.184 30.808C138.13 30.808 138.04 30.808 137.912 30.808C137.794 30.808 137.666 30.808 137.528 30.808C137.4 30.7973 137.272 30.7867 137.144 30.776C137.016 30.7653 136.925 30.7547 136.872 30.744V35H135.544V23.912ZM138.28 24.824C138.002 24.824 137.736 24.8293 137.48 24.84C137.224 24.8507 137.021 24.8773 136.872 24.92V29.56C136.925 29.5813 137.01 29.5973 137.128 29.608C137.245 29.608 137.368 29.6133 137.496 29.624C137.624 29.624 137.746 29.624 137.864 29.624C137.981 29.624 138.066 29.624 138.12 29.624C138.482 29.624 138.84 29.592 139.192 29.528C139.554 29.4533 139.88 29.3253 140.168 29.144C140.456 28.9627 140.685 28.7067 140.856 28.376C141.037 28.0453 141.128 27.624 141.128 27.112C141.128 26.6747 141.042 26.312 140.872 26.024C140.712 25.7253 140.493 25.4907 140.216 25.32C139.949 25.1387 139.645 25.0107 139.304 24.936C138.962 24.8613 138.621 24.824 138.28 24.824Z" fill="black"/>
</g>
<defs>
<clipPath id="clip0_316_12">
<rect width="165" height="64" fill="white"/>
</clipPath>
</defs>
</svg>
