<svg width="142" height="52" viewBox="0 0 142 52" fill="none" xmlns="http://www.w3.org/2000/svg">
<g clip-path="url(#clip0_300_82)">
<rect x="2" y="6" width="134" height="44" fill="white" stroke="black" stroke-width="4"/>
<rect x="6" y="2" width="134" height="44" fill="white" stroke="black" stroke-width="4"/>
<path d="M22.4 27.416C22.72 27.5867 23.0773 27.7307 23.472 27.848C23.8773 27.9547 24.2827 28.008 24.688 28.008C25.04 28.008 25.3707 27.976 25.68 27.912C25.9893 27.8373 26.256 27.7253 26.48 27.576C26.7147 27.416 26.896 27.2187 27.024 26.984C27.1627 26.7493 27.232 26.472 27.232 26.152C27.232 25.7147 27.0827 25.3573 26.784 25.08C26.496 24.8027 26.1333 24.5573 25.696 24.344C25.2587 24.1307 24.784 23.9227 24.272 23.72C23.76 23.5173 23.2853 23.2773 22.848 23C22.4107 22.7227 22.0427 22.3867 21.744 21.992C21.456 21.5867 21.312 21.0747 21.312 20.456C21.312 20.0187 21.3973 19.624 21.568 19.272C21.7493 18.92 22 18.6213 22.32 18.376C22.64 18.1307 23.024 17.944 23.472 17.816C23.9307 17.6773 24.4373 17.608 24.992 17.608C25.632 17.608 26.2133 17.656 26.736 17.752C27.2587 17.8373 27.6747 17.9547 27.984 18.104L28.016 18.088V18.12H28.032L28.016 18.168V20.728H26.832V19.016C26.5653 18.952 26.272 18.8987 25.952 18.856C25.632 18.8133 25.2907 18.792 24.928 18.792C24.576 18.792 24.256 18.8347 23.968 18.92C23.6907 19.0053 23.4507 19.1227 23.248 19.272C23.056 19.4107 22.9067 19.576 22.8 19.768C22.6933 19.96 22.64 20.1627 22.64 20.376C22.64 20.792 22.784 21.1387 23.072 21.416C23.3707 21.6933 23.7387 21.944 24.176 22.168C24.6133 22.3813 25.088 22.5947 25.6 22.808C26.112 23.0213 26.5867 23.272 27.024 23.56C27.4613 23.8373 27.824 24.1733 28.112 24.568C28.4107 24.9627 28.56 25.4533 28.56 26.04C28.56 26.52 28.4693 26.952 28.288 27.336C28.1173 27.72 27.8667 28.0507 27.536 28.328C27.216 28.6053 26.816 28.8187 26.336 28.968C25.8667 29.1173 25.3333 29.192 24.736 29.192C24.3307 29.192 23.9467 29.16 23.584 29.096C23.2213 29.032 22.8853 28.952 22.576 28.856C22.2773 28.76 22.0053 28.6587 21.76 28.552C21.5253 28.4453 21.3387 28.3547 21.2 28.28L21.216 28.232V25.64H22.4V27.416ZM33.7057 17.8H40.2817V18.984H35.0337V22.648H39.8818V23.832H35.0337V27.816H40.3617V29H33.7057V17.8ZM45.6995 17.8H52.2755V18.984H47.0275V22.648H51.8755V23.832H47.0275V27.816H52.3555V29H45.6995V17.8ZM68.615 17.8H76.935V20.728H75.751V18.984H73.431V27.816H75.191V29H70.343V27.816H72.103V18.984H69.799V20.728H68.615V17.8ZM86.8648 25.896H82.5608L81.5368 29H80.2248L83.9688 17.8H85.5368L89.3128 29H87.9208L86.8648 25.896ZM82.9768 24.744H86.4968L84.8488 19.48H84.6568L82.9768 24.744ZM95.8825 23.816H94.6505V29H93.3225V17.8H94.6505V22.792H95.8505L99.4505 17.8H100.987L97.0345 23.128L101.483 29H99.8025L95.8825 23.816ZM105.668 17.8H112.244V18.984H106.996V22.648H111.844V23.832H106.996V27.816H112.324V29H105.668V17.8ZM118.35 27.416C118.67 27.5867 119.027 27.7307 119.422 27.848C119.827 27.9547 120.233 28.008 120.638 28.008C120.99 28.008 121.321 27.976 121.63 27.912C121.939 27.8373 122.206 27.7253 122.43 27.576C122.665 27.416 122.846 27.2187 122.974 26.984C123.113 26.7493 123.182 26.472 123.182 26.152C123.182 25.7147 123.033 25.3573 122.734 25.08C122.446 24.8027 122.083 24.5573 121.646 24.344C121.209 24.1307 120.734 23.9227 120.222 23.72C119.71 23.5173 119.235 23.2773 118.798 23C118.361 22.7227 117.993 22.3867 117.694 21.992C117.406 21.5867 117.262 21.0747 117.262 20.456C117.262 20.0187 117.347 19.624 117.518 19.272C117.699 18.92 117.95 18.6213 118.27 18.376C118.59 18.1307 118.974 17.944 119.422 17.816C119.881 17.6773 120.387 17.608 120.942 17.608C121.582 17.608 122.163 17.656 122.686 17.752C123.209 17.8373 123.625 17.9547 123.934 18.104L123.966 18.088V18.12H123.982L123.966 18.168V20.728H122.782V19.016C122.515 18.952 122.222 18.8987 121.902 18.856C121.582 18.8133 121.241 18.792 120.878 18.792C120.526 18.792 120.206 18.8347 119.918 18.92C119.641 19.0053 119.401 19.1227 119.198 19.272C119.006 19.4107 118.857 19.576 118.75 19.768C118.643 19.96 118.59 20.1627 118.59 20.376C118.59 20.792 118.734 21.1387 119.022 21.416C119.321 21.6933 119.689 21.944 120.126 22.168C120.563 22.3813 121.038 22.5947 121.55 22.808C122.062 23.0213 122.537 23.272 122.974 23.56C123.411 23.8373 123.774 24.1733 124.062 24.568C124.361 24.9627 124.51 25.4533 124.51 26.04C124.51 26.52 124.419 26.952 124.238 27.336C124.067 27.72 123.817 28.0507 123.486 28.328C123.166 28.6053 122.766 28.8187 122.286 28.968C121.817 29.1173 121.283 29.192 120.686 29.192C120.281 29.192 119.897 29.16 119.534 29.096C119.171 29.032 118.835 28.952 118.526 28.856C118.227 28.76 117.955 28.6587 117.71 28.552C117.475 28.4453 117.289 28.3547 117.15 28.28L117.166 28.232V25.64H118.35V27.416Z" fill="black"/>
</g>
<defs>
<clipPath id="clip0_300_82">
<rect width="142" height="52" fill="white"/>
</clipPath>
</defs>
</svg>
