<svg width="142" height="52" viewBox="0 0 142 52" fill="none" xmlns="http://www.w3.org/2000/svg">
<rect x="2" y="6" width="134" height="44" fill="white" stroke="black" stroke-width="4"/>
<path d="M18.4 31.416C18.72 31.5867 19.0773 31.7307 19.472 31.848C19.8773 31.9547 20.2827 32.008 20.688 32.008C21.04 32.008 21.3707 31.976 21.68 31.912C21.9893 31.8373 22.256 31.7253 22.48 31.576C22.7147 31.416 22.896 31.2187 23.024 30.984C23.1627 30.7493 23.232 30.472 23.232 30.152C23.232 29.7147 23.0827 29.3573 22.784 29.08C22.496 28.8027 22.1333 28.5573 21.696 28.344C21.2587 28.1307 20.784 27.9227 20.272 27.72C19.76 27.5173 19.2853 27.2773 18.848 27C18.4107 26.7227 18.0427 26.3867 17.744 25.992C17.456 25.5867 17.312 25.0747 17.312 24.456C17.312 24.0187 17.3973 23.624 17.568 23.272C17.7493 22.92 18 22.6213 18.32 22.376C18.64 22.1307 19.024 21.944 19.472 21.816C19.9307 21.6773 20.4373 21.608 20.992 21.608C21.632 21.608 22.2133 21.656 22.736 21.752C23.2587 21.8373 23.6747 21.9547 23.984 22.104L24.016 22.088V22.12H24.032L24.016 22.168V24.728H22.832V23.016C22.5653 22.952 22.272 22.8987 21.952 22.856C21.632 22.8133 21.2907 22.792 20.928 22.792C20.576 22.792 20.256 22.8347 19.968 22.92C19.6907 23.0053 19.4507 23.1227 19.248 23.272C19.056 23.4107 18.9067 23.576 18.8 23.768C18.6933 23.96 18.64 24.1627 18.64 24.376C18.64 24.792 18.784 25.1387 19.072 25.416C19.3707 25.6933 19.7387 25.944 20.176 26.168C20.6133 26.3813 21.088 26.5947 21.6 26.808C22.112 27.0213 22.5867 27.272 23.024 27.56C23.4613 27.8373 23.824 28.1733 24.112 28.568C24.4107 28.9627 24.56 29.4533 24.56 30.04C24.56 30.52 24.4693 30.952 24.288 31.336C24.1173 31.72 23.8667 32.0507 23.536 32.328C23.216 32.6053 22.816 32.8187 22.336 32.968C21.8667 33.1173 21.3333 33.192 20.736 33.192C20.3307 33.192 19.9467 33.16 19.584 33.096C19.2213 33.032 18.8853 32.952 18.576 32.856C18.2773 32.76 18.0053 32.6587 17.76 32.552C17.5253 32.4453 17.3387 32.3547 17.2 32.28L17.216 32.232V29.64H18.4V31.416ZM29.7057 21.8H36.2817V22.984H31.0337V26.648H35.8818V27.832H31.0337V31.816H36.3617V33H29.7057V21.8ZM41.6995 21.8H48.2755V22.984H43.0275V26.648H47.8755V27.832H43.0275V31.816H48.3555V33H41.6995V21.8ZM64.615 21.8H72.935V24.728H71.751V22.984H69.431V31.816H71.191V33H66.343V31.816H68.103V22.984H65.799V24.728H64.615V21.8ZM82.8648 29.896H78.5608L77.5368 33H76.2248L79.9688 21.8H81.5368L85.3128 33H83.9208L82.8648 29.896ZM78.9768 28.744H82.4968L80.8488 23.48H80.6568L78.9768 28.744ZM91.8825 27.816H90.6505V33H89.3225V21.8H90.6505V26.792H91.8505L95.4505 21.8H96.9865L93.0345 27.128L97.4825 33H95.8025L91.8825 27.816ZM101.668 21.8H108.244V22.984H102.996V26.648H107.844V27.832H102.996V31.816H108.324V33H101.668V21.8ZM114.35 31.416C114.67 31.5867 115.027 31.7307 115.422 31.848C115.827 31.9547 116.233 32.008 116.638 32.008C116.99 32.008 117.321 31.976 117.63 31.912C117.939 31.8373 118.206 31.7253 118.43 31.576C118.665 31.416 118.846 31.2187 118.974 30.984C119.113 30.7493 119.182 30.472 119.182 30.152C119.182 29.7147 119.033 29.3573 118.734 29.08C118.446 28.8027 118.083 28.5573 117.646 28.344C117.209 28.1307 116.734 27.9227 116.222 27.72C115.71 27.5173 115.235 27.2773 114.798 27C114.361 26.7227 113.993 26.3867 113.694 25.992C113.406 25.5867 113.262 25.0747 113.262 24.456C113.262 24.0187 113.347 23.624 113.518 23.272C113.699 22.92 113.95 22.6213 114.27 22.376C114.59 22.1307 114.974 21.944 115.422 21.816C115.881 21.6773 116.387 21.608 116.942 21.608C117.582 21.608 118.163 21.656 118.686 21.752C119.209 21.8373 119.625 21.9547 119.934 22.104L119.966 22.088V22.12H119.982L119.966 22.168V24.728H118.782V23.016C118.515 22.952 118.222 22.8987 117.902 22.856C117.582 22.8133 117.241 22.792 116.878 22.792C116.526 22.792 116.206 22.8347 115.918 22.92C115.641 23.0053 115.401 23.1227 115.198 23.272C115.006 23.4107 114.857 23.576 114.75 23.768C114.643 23.96 114.59 24.1627 114.59 24.376C114.59 24.792 114.734 25.1387 115.022 25.416C115.321 25.6933 115.689 25.944 116.126 26.168C116.563 26.3813 117.038 26.5947 117.55 26.808C118.062 27.0213 118.537 27.272 118.974 27.56C119.411 27.8373 119.774 28.1733 120.062 28.568C120.361 28.9627 120.51 29.4533 120.51 30.04C120.51 30.52 120.419 30.952 120.238 31.336C120.067 31.72 119.817 32.0507 119.486 32.328C119.166 32.6053 118.766 32.8187 118.286 32.968C117.817 33.1173 117.283 33.192 116.686 33.192C116.281 33.192 115.897 33.16 115.534 33.096C115.171 33.032 114.835 32.952 114.526 32.856C114.227 32.76 113.955 32.6587 113.71 32.552C113.475 32.4453 113.289 32.3547 113.15 32.28L113.166 32.232V29.64H114.35V31.416Z" fill="black"/>
</svg>
