<svg width="121" height="64" viewBox="0 0 121 64" fill="none" xmlns="http://www.w3.org/2000/svg">
<rect width="121" height="64" fill="white"/>
<rect x="2" y="6" width="113" height="56" fill="white" stroke="black" stroke-width="4"/>
<path d="M58.6786 49H24.3214C23.971 49 23.6349 48.8563 23.387 48.6006C23.1392 48.3449 23 47.998 23 47.6364V24.4545C23 24.0929 23.1392 23.746 23.387 23.4903C23.6349 23.2346 23.971 23.0909 24.3214 23.0909H32.8579L35.1175 19.6136C35.2372 19.4261 35.4 19.2719 35.5913 19.1648C35.7826 19.0578 35.9966 19.0012 36.2143 19H46.7857C47.0034 19.0012 47.2174 19.0578 47.4087 19.1648C47.6 19.2719 47.7628 19.4261 47.8825 19.6136L50.1421 23.0909H58.6786C59.029 23.0909 59.3651 23.2346 59.613 23.4903C59.8608 23.746 60 24.0929 60 24.4545V47.6364C60 47.998 59.8608 48.3449 59.613 48.6006C59.3651 48.8563 59.029 49 58.6786 49ZM25.6429 46.2727H57.3571V25.8182H49.4286C49.2109 25.817 48.9969 25.7604 48.8056 25.6533C48.6142 25.5463 48.4515 25.3921 48.3318 25.2045L46.0721 21.7273H36.9279L34.6682 25.2045C34.5485 25.3921 34.3858 25.5463 34.1944 25.6533C34.0031 25.7604 33.7891 25.817 33.5714 25.8182H25.6429V46.2727Z" fill="black"/>
<path d="M41.5 43C40.0166 43 38.5666 42.5601 37.3332 41.736C36.0999 40.9119 35.1386 39.7406 34.5709 38.3701C34.0032 36.9997 33.8547 35.4917 34.1441 34.0368C34.4335 32.582 35.1478 31.2456 36.1967 30.1967C37.2456 29.1478 38.582 28.4335 40.0368 28.1441C41.4917 27.8547 42.9997 28.0032 44.3701 28.5709C45.7406 29.1386 46.9119 30.0999 47.736 31.3332C48.5601 32.5666 49 34.0166 49 35.5C49 37.4891 48.2098 39.3968 46.8033 40.8033C45.3968 42.2098 43.4891 43 41.5 43ZM41.5 30.5C40.5111 30.5 39.5444 30.7932 38.7222 31.3427C37.8999 31.8921 37.259 32.673 36.8806 33.5866C36.5022 34.5002 36.4031 35.5055 36.5961 36.4755C36.789 37.4454 37.2652 38.3363 37.9645 39.0355C38.6637 39.7348 39.5546 40.211 40.5246 40.4039C41.4945 40.5969 42.4998 40.4978 43.4134 40.1194C44.327 39.741 45.1079 39.1001 45.6573 38.2779C46.2068 37.4556 46.5 36.4889 46.5 35.5C46.5 34.1739 45.9732 32.9021 45.0355 31.9645C44.0979 31.0268 42.8261 30.5 41.5 30.5V30.5Z" fill="black"/>
<path d="M85 24L83.59 25.41L91.17 33L71 33L71 35L91.17 35L83.59 42.59L85 44L95 34L85 24Z" fill="black"/>
</svg>
