<svg width="121" height="64" viewBox="0 0 121 64" fill="none" xmlns="http://www.w3.org/2000/svg">
<g clip-path="url(#clip0_298_28)">
<rect width="121" height="64" fill="white"/>
<rect x="2" y="6" width="113" height="56" fill="white" stroke="black" stroke-width="4"/>
<rect x="6" y="2" width="113" height="56" fill="white" stroke="black" stroke-width="4"/>
<path d="M62.6786 45H28.3214C27.971 45 27.6349 44.8563 27.387 44.6006C27.1392 44.3449 27 43.998 27 43.6364V20.4545C27 20.0929 27.1392 19.746 27.387 19.4903C27.6349 19.2346 27.971 19.0909 28.3214 19.0909H36.8579L39.1175 15.6136C39.2372 15.4261 39.4 15.2719 39.5913 15.1648C39.7826 15.0578 39.9966 15.0012 40.2143 15H50.7857C51.0034 15.0012 51.2174 15.0578 51.4087 15.1648C51.6 15.2719 51.7628 15.4261 51.8825 15.6136L54.1421 19.0909H62.6786C63.029 19.0909 63.3651 19.2346 63.613 19.4903C63.8608 19.746 64 20.0929 64 20.4545V43.6364C64 43.998 63.8608 44.3449 63.613 44.6006C63.3651 44.8563 63.029 45 62.6786 45ZM29.6429 42.2727H61.3571V21.8182H53.4286C53.2109 21.817 52.9969 21.7604 52.8056 21.6533C52.6142 21.5463 52.4515 21.3921 52.3318 21.2045L50.0721 17.7273H40.9279L38.6682 21.2045C38.5485 21.3921 38.3858 21.5463 38.1944 21.6533C38.0031 21.7604 37.7891 21.817 37.5714 21.8182H29.6429V42.2727Z" fill="black"/>
<path d="M45.5 39C44.0166 39 42.5666 38.5601 41.3332 37.736C40.0999 36.9119 39.1386 35.7406 38.5709 34.3701C38.0032 32.9997 37.8547 31.4917 38.1441 30.0368C38.4335 28.582 39.1478 27.2456 40.1967 26.1967C41.2456 25.1478 42.582 24.4335 44.0368 24.1441C45.4917 23.8547 46.9997 24.0032 48.3701 24.5709C49.7406 25.1386 50.9119 26.0999 51.736 27.3332C52.5601 28.5666 53 30.0166 53 31.5C53 33.4891 52.2098 35.3968 50.8033 36.8033C49.3968 38.2098 47.4891 39 45.5 39ZM45.5 26.5C44.5111 26.5 43.5444 26.7932 42.7222 27.3427C41.8999 27.8921 41.259 28.673 40.8806 29.5866C40.5022 30.5002 40.4031 31.5055 40.5961 32.4755C40.789 33.4454 41.2652 34.3363 41.9645 35.0355C42.6637 35.7348 43.5546 36.211 44.5246 36.4039C45.4945 36.5969 46.4998 36.4978 47.4134 36.1194C48.327 35.741 49.1079 35.1001 49.6573 34.2779C50.2068 33.4556 50.5 32.4889 50.5 31.5C50.5 30.1739 49.9732 28.9021 49.0355 27.9645C48.0979 27.0268 46.8261 26.5 45.5 26.5V26.5Z" fill="black"/>
<path d="M89 20L87.59 21.41L95.17 29L75 29L75 31L95.17 31L87.59 38.59L89 40L99 30L89 20Z" fill="black"/>
</g>
<defs>
<clipPath id="clip0_298_28">
<rect width="121" height="64" fill="white"/>
</clipPath>
</defs>
</svg>
