<svg width="60" height="60" viewBox="0 0 60 60" fill="none" xmlns="http://www.w3.org/2000/svg">
<g clip-path="url(#clip0_221_30)">
<rect width="60" height="60" fill="white"/>
<rect x="2" y="6" width="52" height="52" fill="white" stroke="black" stroke-width="4"/>
<rect x="6" y="2" width="52" height="52" fill="white" stroke="black" stroke-width="4"/>
<path d="M28 24H30V36H28V24ZM34 24H36V36H34V24Z" fill="black"/>
<path d="M20 18V20H22V40C22 40.5304 22.2107 41.0391 22.5858 41.4142C22.9609 41.7893 23.4696 42 24 42H40C40.5304 42 41.0391 41.7893 41.4142 41.4142C41.7893 41.0391 42 40.5304 42 40V20H44V18H20ZM24 40V20H40V40H24ZM28 14H36V16H28V14Z" fill="black"/>
</g>
<defs>
<clipPath id="clip0_221_30">
<rect width="60" height="60" fill="white"/>
</clipPath>
</defs>
</svg>
