<svg width="60" height="60" viewBox="0 0 60 60" fill="none" xmlns="http://www.w3.org/2000/svg">
<rect width="60" height="60" fill="white"/>
<rect x="2" y="6" width="52" height="52" fill="white" stroke="black" stroke-width="4"/>
<path d="M24 28H26V40H24V28ZM30 28H32V40H30V28Z" fill="black"/>
<path d="M16 22V24H18V44C18 44.5304 18.2107 45.0391 18.5858 45.4142C18.9609 45.7893 19.4696 46 20 46H36C36.5304 46 37.0391 45.7893 37.4142 45.4142C37.7893 45.0391 38 44.5304 38 44V24H40V22H16ZM20 44V24H36V44H20ZM24 18H32V20H24V18Z" fill="black"/>
</svg>
